<?xml version="1.0" encoding="UTF-8"?>
<svg width="128" height="128" viewBox="0 0 128 128" fill="none" xmlns="http://www.w3.org/2000/svg">
  <defs>
    <linearGradient id="g1" x1="0" y1="0" x2="128" y2="128" gradientUnits="userSpaceOnUse">
      <stop offset="0" stop-color="#ec4899"/>
      <stop offset="0.5" stop-color="#a21caf"/>
      <stop offset="1" stop-color="#f59e0b"/>
    </linearGradient>
    <linearGradient id="g2" x1="0" y1="0" x2="0" y2="100" gradientUnits="userSpaceOnUse">
      <stop offset="0" stop-color="#fff" stop-opacity="0.95"/>
      <stop offset="1" stop-color="#ffe4e6"/>
    </linearGradient>
    <filter id="shadow" x="-20%" y="-20%" width="140%" height="140%">
      <feDropShadow dx="0" dy="2" stdDeviation="3" flood-color="#ec4899" flood-opacity="0.25"/>
    </filter>
  </defs>

  <!-- Circle badge -->
  <circle cx="64" cy="64" r="60" fill="url(#g1)" />
  <circle cx="64" cy="64" r="54" fill="white" opacity="0.85" />

  <!-- Ice cream scoop -->
  <g filter="url(#shadow)">
    <path d="M64 26c-16.5 0-30 10.8-30 24.2 0 9.6 7.2 17.6 17.4 21.5 2 .8 3.3 2.7 3.3 4.9v.4h18.6v-.4c0-2.2 1.3-4.1 3.3-4.9C86.8 68 94 60 94 50.2 94 36.8 80.5 26 64 26z" fill="url(#g2)"/>
    <!-- Sprinkles -->
    <rect x="48" y="40" width="3" height="8" rx="1.5" fill="#f43f5e"/>
    <rect x="58" y="36" width="3" height="8" rx="1.5" fill="#22c55e" transform="rotate(20 59.5 40)"/>
    <rect x="70" y="38" width="3" height="8" rx="1.5" fill="#3b82f6" transform="rotate(-20 71.5 42)"/>
    <rect x="78" y="44" width="3" height="8" rx="1.5" fill="#f59e0b" transform="rotate(15 79.5 48)"/>
  </g>

  <!-- Cone -->
  <path d="M64 76 L48 116 A4 4 0 0 0 52.5 121 L75.5 121 A4 4 0 0 0 80 116 L64 76z" fill="#fbbf24"/>
  <path d="M56 95 L72 95 M53 104 L75 104 M50 113 L78 113" stroke="#d97706" stroke-width="2" stroke-linecap="round"/>

  <!-- Text -->
  <text x="64" y="73" text-anchor="middle" font-family="Inter, system-ui, Arial" font-size="9" font-weight="800" fill="#be185d">5 STAR ICREAM</text>
</svg>
